<svg width="148" height="34" viewBox="0 0 148 34" fill="none" xmlns="http://www.w3.org/2000/svg">
<path fill-rule="evenodd" clip-rule="evenodd" d="M10.5612 0.845215H19.774V2.9977H22.0664C22.0228 3.11175 21.9674 3.22249 21.9015 3.33011L14.4727 13.8502H21.4498V15.6764H23.2651C23.2192 15.9352 23.1083 16.1951 22.9182 16.4494L4.44012 33.1528V31.3657H3.17853L5.98128 19.2049H1.9245V17.3638H0.199219C0.214405 17.28 0.234192 17.1927 0.257785 17.0999L8.26915 2.9977H10.5612V0.845215Z" fill="#FFD500"/>
<path fill-rule="evenodd" clip-rule="evenodd" d="M40.0839 16.2735V18.6914H55.5584V16.2735H57.9763V11.4376H64.2628V18.6914H70.0658V0.798828H64.2628V8.05256H57.9763V0.798828H52.1734V8.05256H43.469V0.798828H37.666V16.2735H40.0839ZM55.0748 18.2076H40.5683V15.7897H38.1504V1.28241H38.1496V15.7899H40.5675V18.2078H55.0748V18.2076ZM52.6569 8.53596H52.6577V1.28241H52.6569V8.53596ZM57.4927 15.7899H55.0756V15.7897H57.4927V15.7899ZM57.4935 10.9541H64.7464V18.2078H69.5822V18.2076H64.7472V10.9539H57.4935V10.9541ZM64.7472 1.28241H64.7464V8.53596H64.7472V1.28241ZM70.0658 33.1988V29.8138H45.8868V20.1421H40.0839V30.7809H42.5018V33.1988H70.0658ZM52.6569 15.7897H52.6577V10.9539H42.9862V10.9541H52.6569V15.7897ZM52.1734 15.3063H43.469V11.4376H52.1734V15.3063ZM40.5683 20.6257H40.5675V30.2973H42.9854V32.7152H69.5822V32.7151H42.9862V30.2972H40.5683V20.6257ZM117.455 18.6914H135.347V15.3063H120.84V11.4376H135.347V8.05256H120.84V4.1839H135.347V0.798828H115.037V16.2735H117.455V18.6914ZM134.864 18.2076H117.939V15.7897H115.521V1.28241H115.521V15.7899H117.939V18.2078H134.864V18.2076ZM134.864 10.9541H120.357V10.9539H134.864V10.9541ZM134.864 3.70032H120.357V3.70014H134.864V3.70032ZM141.634 18.6914H147.437V0.798828H141.634V18.6914ZM122.291 22.56H117.455V30.7809H122.291V33.1988H142.601V30.7809H147.437V22.56H142.601V20.1421H122.291V22.56ZM122.774 32.7152V30.2973H117.939V23.0436H117.939V30.2972H122.775V32.7151H142.118V32.7152H122.774ZM142.118 30.2973H146.953V30.2972H142.118V30.2973ZM122.775 20.6257H122.774V23.0434H122.775V20.6257ZM123.258 25.9451H125.676V23.5272H139.216V25.9451H141.634V27.3958H139.216V29.8138H125.676V27.3958H123.258V25.9451ZM139.7 25.4615V23.0436H125.193V23.0434H139.7V25.4613H142.118V27.8792H142.118V25.4615H139.7ZM139.7 27.8794H139.7V30.2972H139.7V27.8794ZM122.775 25.4615V25.4613H125.192V25.4615H122.775ZM146.953 18.2076V18.2078H142.118V1.28241H142.118V18.2076H146.953ZM103.431 32.7151H98.5981V32.7152H103.434V18.2078H105.849V18.2076H103.431V32.7151ZM103.431 15.7897V1.28241H103.434V15.7897H103.431ZM110.688 1.28241H110.684V32.7151H105.852V32.7152H110.688V1.28241ZM86.5056 30.2972H79.255V30.2973H86.5087V27.8794H88.9266V25.4615H91.3444V3.70032H91.3413V25.4613H88.9234V27.8792H86.5056V30.2972ZM76.8371 6.11823V6.11805H86.5056V6.11823H76.8371ZM103.917 33.1988H98.1145V0.798828H103.917V15.3063H105.368V0.798828H111.171V33.1988H105.368V18.6914H103.917V33.1988ZM83.6072 24.9779H86.0251V6.60181H76.3535V3.21674H91.828V25.9451H89.4101V28.363H86.9922V30.7809H78.7714V27.3958H83.6072V24.9779Z" fill="black"/>
</svg>
