<svg width="74" height="17" viewBox="0 0 74 17" fill="none" xmlns="http://www.w3.org/2000/svg">
<path fill-rule="evenodd" clip-rule="evenodd" d="M5.18077 0.0234375H9.78735V1.09949H10.9336C10.9118 1.15658 10.8841 1.21201 10.8511 1.26589L7.13669 6.52593H10.6258V7.43904H11.5329C11.5099 7.56841 11.4545 7.69836 11.3595 7.82552L2.12003 16.1776V15.2839H1.48958L2.89099 9.2033H0.861433V8.28252H0C0.00758825 8.24072 0.0174695 8.1971 0.0292476 8.15079L4.03504 1.09949H5.18077V0.0234375Z" fill="black"/>
<path fill-rule="evenodd" clip-rule="evenodd" d="M19.9414 7.73731V8.94627H27.6786V7.73731H28.8876V5.3194H32.0308V8.94627H34.9323V0H32.0308V3.62687H28.8876V0H25.9861V3.62687H21.6339V0H18.7324V7.73731H19.9414ZM27.4368 8.70439H20.1839V7.49543H18.975V0.241791H18.9742V7.49552H20.1832V8.70448H27.4368V8.70439ZM26.2279 3.86857H26.2287V0.241791H26.2279V3.86857ZM28.6458 7.49552H27.4376V7.49543H28.6458V7.49552ZM28.6466 5.07761H32.2726V8.70448H34.6905V8.70439H32.2734V5.07752H28.6466V5.07761ZM32.2734 0.241791H32.2726V3.86857H32.2734V0.241791ZM34.9323 16.2V14.5075H22.8428V9.67164H19.9414V14.991H21.1503V16.2H34.9323ZM26.2279 7.49543H26.2287V5.07752H21.3929V5.07761H26.2279V7.49543ZM25.9861 7.25373H21.6339V5.3194H25.9861V7.25373ZM20.1839 9.91343H20.1832V14.7493H21.3921V15.9582H34.6905V15.9581H21.3929V14.7492H20.1839V9.91343ZM58.6273 8.94627H67.5735V7.25373H60.3198V5.3194H67.5735V3.62687H60.3198V1.69254H67.5735V0H57.4184V7.73731H58.6273V8.94627ZM67.3317 8.70439H58.8699V7.49543H57.6609V0.241791H57.6601V7.49552H58.8691V8.70448H67.3317V8.70439ZM67.3317 5.07761H60.0788V5.07752H67.3317V5.07761ZM67.3317 1.45075H60.0788V1.45065H67.3317V1.45075ZM70.7168 8.94627H73.6182V0H70.7168V8.94627ZM61.0452 10.8806H58.6273V14.991H61.0452V16.2H71.2003V14.991H73.6182V10.8806H71.2003V9.67164H61.0452V10.8806ZM61.287 15.9582V14.7493H58.8691V11.1224H58.8699V14.7492H61.2878V15.9581H70.9586V15.9582H61.287ZM70.9593 14.7493H73.3764V14.7492H70.9593V14.7493ZM61.2878 9.91343H61.287V11.1223H61.2878V9.91343ZM61.5288 12.5731H62.7377V11.3642H69.5078V12.5731H70.7168V13.2985H69.5078V14.5075H62.7377V13.2985H61.5288V12.5731ZM69.7496 12.3313V11.1224H62.4967V11.1223H69.7504V12.3313H70.9593V13.5402H70.9586V12.3313H69.7496ZM69.7504 13.5403H69.7496V14.7492H69.7504V13.5403ZM61.2878 12.3313V12.3313H62.4959V12.3313H61.2878ZM73.3764 8.70439V8.70448H70.9586V0.241791H70.9593V8.70439H73.3764ZM51.6146 15.9581H49.1977V15.9582H51.6156V8.70448H52.8236V8.70439H51.6146V15.9581ZM51.6146 7.49543V0.241791H51.6156V7.49543H51.6146ZM55.2424 0.241791H55.2415V15.9581H52.8245V15.9582H55.2424V0.241791ZM43.152 14.7492H39.5261V14.7493H43.153V13.5403H44.3619V12.3313H45.5709V1.45075H45.5699V12.3313H44.3609V13.5402H43.152V14.7492ZM38.3172 2.6597V2.65961H43.152V2.6597H38.3172ZM51.8574 16.2H48.9559V0H51.8574V7.25373H52.5827V0H55.4842V16.2H52.5827V8.94627H51.8574V16.2ZM41.7022 12.0896H42.9112V2.90149H38.0754V1.20896H45.8126V12.5731H44.6037V13.7821H43.3948V14.991H39.2843V13.2985H41.7022V12.0896Z" fill="black"/>
</svg>
