<svg width="24" height="25" viewBox="0 0 24 25" fill="none" xmlns="http://www.w3.org/2000/svg">
<g id="ic/visibility_off">
<path id="Vector" d="M15.7736 13.3733L14.6506 12.2503C14.8211 11.3605 14.5871 10.6016 13.9486 9.97336C13.3102 9.34516 12.5441 9.10413 11.6506 9.25028L10.5275 8.12723C10.7596 8.01953 10.9983 7.94196 11.2438 7.89453C11.4894 7.8471 11.7416 7.82338 12.0006 7.82338C13.1352 7.82338 14.0983 8.21921 14.89 9.01088C15.6816 9.80255 16.0775 10.7657 16.0775 11.9003C16.0775 12.1592 16.0553 12.4115 16.0111 12.657C15.9669 12.9025 15.8877 13.1413 15.7736 13.3733ZM18.9544 16.4849L17.8506 15.4503C18.4839 14.9669 19.0506 14.4294 19.5506 13.8378C20.0506 13.2461 20.4672 12.6003 20.8006 11.9003C19.9672 10.2169 18.7631 8.87945 17.1881 7.88778C15.6131 6.89611 13.8839 6.40028 12.0006 6.40028C11.5172 6.40028 11.0464 6.43361 10.5881 6.50028C10.1297 6.56695 9.66723 6.66695 9.20056 6.80028L8.03521 5.63493C8.6711 5.38365 9.31949 5.19839 9.98039 5.07916C10.6413 4.95992 11.3147 4.90031 12.0006 4.90031C14.1493 4.90031 16.123 5.45864 17.9217 6.57531C19.7204 7.69197 21.1037 9.20286 22.0717 11.108C22.1384 11.2349 22.1867 11.3628 22.2169 11.4916C22.247 11.6205 22.2621 11.7567 22.2621 11.9003C22.2621 12.0439 22.2496 12.1801 22.2246 12.3089C22.1996 12.4378 22.1537 12.5657 22.0871 12.6926C21.7332 13.4451 21.289 14.14 20.7544 14.7772C20.2198 15.4144 19.6198 15.9836 18.9544 16.4849ZM12.0006 18.9003C9.89545 18.9003 7.96597 18.3378 6.21214 17.2128C4.45829 16.0878 3.06405 14.606 2.02944 12.7676C1.9461 12.6407 1.88521 12.5028 1.84676 12.3541C1.8083 12.2054 1.78906 12.0541 1.78906 11.9003C1.78906 11.7464 1.80573 11.5977 1.83906 11.4541C1.8724 11.3105 1.93073 11.1702 2.01406 11.033C2.38586 10.3535 2.80702 9.70638 3.27754 9.09163C3.74805 8.47688 4.28908 7.92592 4.90061 7.43876L2.64291 5.16566C2.50445 5.01694 2.43618 4.84034 2.43811 4.63586C2.44003 4.43137 2.51342 4.2567 2.65829 4.11183C2.80315 3.96696 2.9788 3.89453 3.18521 3.89453C3.39161 3.89453 3.56725 3.96696 3.71211 4.11183L20.289 20.6887C20.4275 20.8272 20.5009 20.9986 20.5092 21.2031C20.5175 21.4076 20.4441 21.5874 20.289 21.7426C20.1441 21.8874 19.9685 21.9599 19.7621 21.9599C19.5557 21.9599 19.3801 21.8874 19.2352 21.7426L15.716 18.2541C15.1262 18.4823 14.5201 18.647 13.8977 18.7483C13.2753 18.8496 12.6429 18.9003 12.0006 18.9003ZM5.95444 8.49256C5.36854 8.94512 4.84193 9.45699 4.37461 10.0282C3.9073 10.5993 3.51595 11.2233 3.20056 11.9003C4.0339 13.5836 5.23806 14.9211 6.81306 15.9128C8.38806 16.9044 10.1172 17.4003 12.0006 17.4003C12.4301 17.4003 12.8528 17.3714 13.2689 17.3137C13.6849 17.256 14.098 17.1669 14.5083 17.0464L13.2429 15.7503C13.0403 15.8387 12.8381 15.8986 12.6361 15.9301C12.4342 15.9615 12.2224 15.9772 12.0006 15.9772C10.866 15.9772 9.90283 15.5813 9.11116 14.7897C8.3195 13.998 7.92366 13.0349 7.92366 11.9003C7.92366 11.6785 7.94097 11.4666 7.97559 11.2647C8.0102 11.0628 8.06854 10.8605 8.15059 10.658L5.95444 8.49256Z" fill="#BFBFBF"/>
</g>
</svg>
