<svg width="24" height="25" viewBox="0 0 24 25" fill="none" xmlns="http://www.w3.org/2000/svg">
<path d="M12.0031 15.9773C13.1362 15.9773 14.0985 15.5807 14.8902 14.7875C15.6819 13.9943 16.0777 13.0312 16.0777 11.8981C16.0777 10.765 15.6811 9.80263 14.888 9.01097C14.0948 8.2193 13.1316 7.82347 11.9985 7.82347C10.8655 7.82347 9.90308 8.22005 9.11141 9.01322C8.31975 9.8064 7.92391 10.7695 7.92391 11.9026C7.92391 13.0357 8.3205 13.9981 9.11366 14.7898C9.90685 15.5814 10.87 15.9773 12.0031 15.9773ZM12.0008 14.6004C11.2508 14.6004 10.6133 14.3379 10.0883 13.8129C9.56331 13.2879 9.30081 12.6504 9.30081 11.9004C9.30081 11.1504 9.56331 10.5129 10.0883 9.98787C10.6133 9.46287 11.2508 9.20037 12.0008 9.20037C12.7508 9.20037 13.3883 9.46287 13.9133 9.98787C14.4383 10.5129 14.7008 11.1504 14.7008 11.9004C14.7008 12.6504 14.4383 13.2879 13.9133 13.8129C13.3883 14.3379 12.7508 14.6004 12.0008 14.6004ZM12.0008 18.9003C9.8957 18.9003 7.97039 18.3388 6.22489 17.2157C4.47937 16.0926 3.0861 14.6151 2.04509 12.783C1.96175 12.6395 1.90085 12.4947 1.86239 12.3489C1.82392 12.2031 1.80469 12.0534 1.80469 11.8999C1.80469 11.7463 1.82392 11.5968 1.86239 11.4513C1.90085 11.3058 1.96175 11.1613 2.04509 11.0177C3.0861 9.18564 4.47937 7.70808 6.22489 6.58502C7.97039 5.46193 9.8957 4.90039 12.0008 4.90039C14.1059 4.90039 16.0312 5.46193 17.7767 6.58502C19.5223 7.70808 20.9155 9.18564 21.9565 11.0177C22.0399 11.1613 22.1008 11.306 22.1392 11.4518C22.1777 11.5977 22.1969 11.7473 22.1969 11.9009C22.1969 12.0544 22.1777 12.2039 22.1392 12.3494C22.1008 12.4949 22.0399 12.6395 21.9565 12.783C20.9155 14.6151 19.5223 16.0926 17.7767 17.2157C16.0312 18.3388 14.1059 18.9003 12.0008 18.9003ZM12.0008 17.4004C13.8841 17.4004 15.6133 16.9045 17.1883 15.9129C18.7633 14.9212 19.9675 13.5837 20.8008 11.9004C19.9675 10.217 18.7633 8.87953 17.1883 7.88787C15.6133 6.8962 13.8841 6.40037 12.0008 6.40037C10.1175 6.40037 8.38831 6.8962 6.81331 7.88787C5.23831 8.87953 4.03415 10.217 3.20081 11.9004C4.03415 13.5837 5.23831 14.9212 6.81331 15.9129C8.38831 16.9045 10.1175 17.4004 12.0008 17.4004Z" fill="#BFBFBF"/>
</svg>
