<svg width="74" height="18" viewBox="0 0 74 18" fill="none" xmlns="http://www.w3.org/2000/svg">
<path fill-rule="evenodd" clip-rule="evenodd" d="M5.18077 0.423828H9.78735V1.49988H10.9336C10.9118 1.55697 10.8841 1.6124 10.8511 1.66628L7.13669 6.92632H10.6258V7.83943H11.5329C11.5099 7.9688 11.4545 8.09875 11.3595 8.22591L2.12003 16.578V15.6843H1.48958L2.89099 9.60369H0.861433V8.68291H0C0.00758825 8.64111 0.0174695 8.5975 0.0292476 8.55118L4.03504 1.49988H5.18077V0.423828Z" fill="#FFD500"/>
<path fill-rule="evenodd" clip-rule="evenodd" d="M19.9414 8.1377V9.34666H27.6786V8.1377H28.8876V5.71979H32.0308V9.34666H34.9323V0.400391H32.0308V4.02726H28.8876V0.400391H25.9861V4.02726H21.6339V0.400391H18.7324V8.1377H19.9414ZM27.4368 9.10478H20.1839V7.89582H18.975V0.642182H18.9742V7.89591H20.1832V9.10487H27.4368V9.10478ZM26.2279 4.26896H26.2287V0.642182H26.2279V4.26896ZM28.6458 7.89591H27.4376V7.89582H28.6458V7.89591ZM28.6466 5.478H32.2726V9.10487H34.6905V9.10478H32.2734V5.47791H28.6466V5.478ZM32.2734 0.642182H32.2726V4.26896H32.2734V0.642182ZM34.9323 16.6004V14.9079H22.8428V10.072H19.9414V15.3914H21.1503V16.6004H34.9323ZM26.2279 7.89582H26.2287V5.47791H21.3929V5.478H26.2279V7.89582ZM25.9861 7.65412H21.6339V5.71979H25.9861V7.65412ZM20.1839 10.3138H20.1832V15.1496H21.3921V16.3586H34.6905V16.3585H21.3929V15.1496H20.1839V10.3138ZM58.6273 9.34666H67.5735V7.65412H60.3198V5.71979H67.5735V4.02726H60.3198V2.09293H67.5735V0.400391H57.4184V8.1377H58.6273V9.34666ZM67.3317 9.10478H58.8699V7.89582H57.6609V0.642182H57.6601V7.89591H58.8691V9.10487H67.3317V9.10478ZM67.3317 5.478H60.0788V5.47791H67.3317V5.478ZM67.3317 1.85114H60.0788V1.85105H67.3317V1.85114ZM70.7168 9.34666H73.6182V0.400391H70.7168V9.34666ZM61.0452 11.281H58.6273V15.3914H61.0452V16.6004H71.2003V15.3914H73.6182V11.281H71.2003V10.072H61.0452V11.281ZM61.287 16.3586V15.1496H58.8691V11.5228H58.8699V15.1496H61.2878V16.3585H70.9586V16.3586H61.287ZM70.9593 15.1496H73.3764V15.1496H70.9593V15.1496ZM61.2878 10.3138H61.287V11.5227H61.2878V10.3138ZM61.5288 12.9735H62.7377V11.7646H69.5078V12.9735H70.7168V13.6989H69.5078V14.9079H62.7377V13.6989H61.5288V12.9735ZM69.7496 12.7317V11.5228H62.4967V11.5227H69.7504V12.7316H70.9593V13.9406H70.9586V12.7317H69.7496ZM69.7504 13.9407H69.7496V15.1496H69.7504V13.9407ZM61.2878 12.7317V12.7316H62.4959V12.7317H61.2878ZM73.3764 9.10478V9.10487H70.9586V0.642182H70.9593V9.10478H73.3764ZM51.6146 16.3585H49.1977V16.3586H51.6156V9.10487H52.8236V9.10478H51.6146V16.3585ZM51.6146 7.89582V0.642182H51.6156V7.89582H51.6146ZM55.2424 0.642182H55.2415V16.3585H52.8245V16.3586H55.2424V0.642182ZM43.152 15.1496H39.5261V15.1496H43.153V13.9407H44.3619V12.7317H45.5709V1.85114H45.5699V12.7316H44.3609V13.9406H43.152V15.1496ZM38.3172 3.06009V3.06H43.152V3.06009H38.3172ZM51.8574 16.6004H48.9559V0.400391H51.8574V7.65412H52.5827V0.400391H55.4842V16.6004H52.5827V9.34666H51.8574V16.6004ZM41.7022 12.4899H42.9112V3.30188H38.0754V1.60935H45.8126V12.9735H44.6037V14.1825H43.3948V15.3914H39.2843V13.6989H41.7022V12.4899Z" fill="white"/>
</svg>
